<svg xmlns="http://www.w3.org/2000/svg" version="1.1" xmlns:xlink="http://www.w3.org/1999/xlink" xmlns:svgjs="http://svgjs.dev/svgjs" width="1440" height="560" preserveAspectRatio="none" viewBox="0 0 1440 560"><g mask="url(&quot;#SvgjsMask1354&quot;)" fill="none"><rect width="1440" height="560" x="0" y="0" fill="rgba(255, 255, 255, 1)"></rect><path d="M362.77 74.74L458.03 129.74L458.03 239.74L362.77 294.74L267.5 239.74L267.5 129.74zM267.5 239.74L362.77 294.74L362.77 404.74L267.5 459.74L172.24 404.74L172.24 294.74zM458.03 -90.26L553.3 -35.26L553.3 74.74L458.03 129.74L362.77 74.74L362.77 -35.26zM458.03 239.74L553.3 294.74L553.3 404.74L458.03 459.74L362.77 404.74L362.77 294.74zM743.83 74.74L839.09 129.74L839.09 239.74L743.83 294.74L648.56 239.74L648.56 129.74zM648.56 239.74L743.83 294.74L743.83 404.74L648.56 459.74L553.3 404.74L553.3 294.74zM743.83 404.74L839.09 459.74L839.09 569.74L743.83 624.74L648.56 569.74L648.56 459.74zM839.09 -90.26L934.36 -35.26L934.36 74.74L839.09 129.74L743.83 74.74L743.83 -35.26zM934.36 74.74L1029.63 129.74L1029.63 239.74L934.36 294.74L839.09 239.74L839.09 129.74zM839.09 239.74L934.36 294.74L934.36 404.74L839.09 459.74L743.83 404.74L743.83 294.74zM1029.63 239.74L1124.89 294.74L1124.89 404.74L1029.63 459.74L934.36 404.74L934.36 294.74zM1315.42 74.74L1410.69 129.74L1410.69 239.74L1315.42 294.74L1220.16 239.74L1220.16 129.74zM1410.69 239.74L1505.95 294.74L1505.95 404.74L1410.69 459.74L1315.42 404.74L1315.42 294.74zM1505.95 404.74L1601.22 459.74L1601.22 569.74L1505.95 624.74L1410.69 569.74L1410.69 459.74z" stroke="rgba(0, 238, 255, 1)" stroke-width="2"></path><path d="M351.77 74.74 a11 11 0 1 0 22 0 a11 11 0 1 0 -22 0zM447.03 129.74 a11 11 0 1 0 22 0 a11 11 0 1 0 -22 0zM447.03 239.74 a11 11 0 1 0 22 0 a11 11 0 1 0 -22 0zM351.77 294.74 a11 11 0 1 0 22 0 a11 11 0 1 0 -22 0zM256.5 239.74 a11 11 0 1 0 22 0 a11 11 0 1 0 -22 0zM256.5 129.74 a11 11 0 1 0 22 0 a11 11 0 1 0 -22 0zM351.77 404.74 a11 11 0 1 0 22 0 a11 11 0 1 0 -22 0zM256.5 459.74 a11 11 0 1 0 22 0 a11 11 0 1 0 -22 0zM161.24 404.74 a11 11 0 1 0 22 0 a11 11 0 1 0 -22 0zM161.24 294.74 a11 11 0 1 0 22 0 a11 11 0 1 0 -22 0zM447.03 -90.26 a11 11 0 1 0 22 0 a11 11 0 1 0 -22 0zM542.3 -35.26 a11 11 0 1 0 22 0 a11 11 0 1 0 -22 0zM542.3 74.74 a11 11 0 1 0 22 0 a11 11 0 1 0 -22 0zM351.77 -35.26 a11 11 0 1 0 22 0 a11 11 0 1 0 -22 0zM542.3 294.74 a11 11 0 1 0 22 0 a11 11 0 1 0 -22 0zM542.3 404.74 a11 11 0 1 0 22 0 a11 11 0 1 0 -22 0zM447.03 459.74 a11 11 0 1 0 22 0 a11 11 0 1 0 -22 0zM732.83 74.74 a11 11 0 1 0 22 0 a11 11 0 1 0 -22 0zM828.09 129.74 a11 11 0 1 0 22 0 a11 11 0 1 0 -22 0zM828.09 239.74 a11 11 0 1 0 22 0 a11 11 0 1 0 -22 0zM732.83 294.74 a11 11 0 1 0 22 0 a11 11 0 1 0 -22 0zM637.56 239.74 a11 11 0 1 0 22 0 a11 11 0 1 0 -22 0zM637.56 129.74 a11 11 0 1 0 22 0 a11 11 0 1 0 -22 0zM732.83 404.74 a11 11 0 1 0 22 0 a11 11 0 1 0 -22 0zM637.56 459.74 a11 11 0 1 0 22 0 a11 11 0 1 0 -22 0zM828.09 459.74 a11 11 0 1 0 22 0 a11 11 0 1 0 -22 0zM828.09 569.74 a11 11 0 1 0 22 0 a11 11 0 1 0 -22 0zM732.83 624.74 a11 11 0 1 0 22 0 a11 11 0 1 0 -22 0zM637.56 569.74 a11 11 0 1 0 22 0 a11 11 0 1 0 -22 0zM828.09 -90.26 a11 11 0 1 0 22 0 a11 11 0 1 0 -22 0zM923.36 -35.26 a11 11 0 1 0 22 0 a11 11 0 1 0 -22 0zM923.36 74.74 a11 11 0 1 0 22 0 a11 11 0 1 0 -22 0zM732.83 -35.26 a11 11 0 1 0 22 0 a11 11 0 1 0 -22 0zM1018.63 129.74 a11 11 0 1 0 22 0 a11 11 0 1 0 -22 0zM1018.63 239.74 a11 11 0 1 0 22 0 a11 11 0 1 0 -22 0zM923.36 294.74 a11 11 0 1 0 22 0 a11 11 0 1 0 -22 0zM923.36 404.74 a11 11 0 1 0 22 0 a11 11 0 1 0 -22 0zM1113.89 294.74 a11 11 0 1 0 22 0 a11 11 0 1 0 -22 0zM1113.89 404.74 a11 11 0 1 0 22 0 a11 11 0 1 0 -22 0zM1018.63 459.74 a11 11 0 1 0 22 0 a11 11 0 1 0 -22 0zM1304.42 74.74 a11 11 0 1 0 22 0 a11 11 0 1 0 -22 0zM1399.69 129.74 a11 11 0 1 0 22 0 a11 11 0 1 0 -22 0zM1399.69 239.74 a11 11 0 1 0 22 0 a11 11 0 1 0 -22 0zM1304.42 294.74 a11 11 0 1 0 22 0 a11 11 0 1 0 -22 0zM1209.16 239.74 a11 11 0 1 0 22 0 a11 11 0 1 0 -22 0zM1209.16 129.74 a11 11 0 1 0 22 0 a11 11 0 1 0 -22 0zM1494.95 294.74 a11 11 0 1 0 22 0 a11 11 0 1 0 -22 0zM1494.95 404.74 a11 11 0 1 0 22 0 a11 11 0 1 0 -22 0zM1399.69 459.74 a11 11 0 1 0 22 0 a11 11 0 1 0 -22 0zM1304.42 404.74 a11 11 0 1 0 22 0 a11 11 0 1 0 -22 0zM1590.22 459.74 a11 11 0 1 0 22 0 a11 11 0 1 0 -22 0zM1590.22 569.74 a11 11 0 1 0 22 0 a11 11 0 1 0 -22 0zM1494.95 624.74 a11 11 0 1 0 22 0 a11 11 0 1 0 -22 0zM1399.69 569.74 a11 11 0 1 0 22 0 a11 11 0 1 0 -22 0z" fill="rgba(0, 238, 255, 1)"></path><path d="M35.82 80.65L70.46 100.65L70.46 140.65L35.82 160.65L1.18 140.65L1.18 100.65zM35.82 200.65L70.46 220.65L70.46 260.65L35.82 280.65L1.18 260.65L1.18 220.65zM70.46 260.65L105.1 280.65L105.1 320.65L70.46 340.65L35.82 320.65L35.82 280.65zM105.1 -39.35L139.75 -19.35L139.75 20.65L105.1 40.65L70.46 20.65L70.46 -19.35zM105.1 80.65L139.75 100.65L139.75 140.65L105.1 160.65L70.46 140.65L70.46 100.65zM174.39 200.65L209.03 220.65L209.03 260.65L174.39 280.65L139.75 260.65L139.75 220.65zM209.03 380.65L243.67 400.65L243.67 440.65L209.03 460.65L174.39 440.65L174.39 400.65zM209.03 500.65L243.67 520.65L243.67 560.65L209.03 580.65L174.39 560.65L174.39 520.65zM416.88 20.65L451.52 40.65L451.52 80.65L416.88 100.65L382.24 80.65L382.24 40.65zM416.88 140.65L451.52 160.65L451.52 200.65L416.88 220.65L382.24 200.65L382.24 160.65zM382.24 200.65L416.88 220.65L416.88 260.65L382.24 280.65L347.6 260.65L347.6 220.65zM416.88 500.65L451.52 520.65L451.52 560.65L416.88 580.65L382.24 560.65L382.24 520.65zM520.81 80.65L555.45 100.65L555.45 140.65L520.81 160.65L486.17 140.65L486.17 100.65zM520.81 200.65L555.45 220.65L555.45 260.65L520.81 280.65L486.17 260.65L486.17 220.65zM659.38 -39.35L694.02 -19.35L694.02 20.65L659.38 40.65L624.73 20.65L624.73 -19.35zM694.02 20.65L728.66 40.65L728.66 80.65L694.02 100.65L659.38 80.65L659.38 40.65zM694.02 380.65L728.66 400.65L728.66 440.65L694.02 460.65L659.38 440.65L659.38 400.65zM659.38 440.65L694.02 460.65L694.02 500.65L659.38 520.65L624.73 500.65L624.73 460.65zM694.02 500.65L728.66 520.65L728.66 560.65L694.02 580.65L659.38 560.65L659.38 520.65zM763.3 20.65L797.94 40.65L797.94 80.65L763.3 100.65L728.66 80.65L728.66 40.65zM728.66 320.65L763.3 340.65L763.3 380.65L728.66 400.65L694.02 380.65L694.02 340.65zM797.94 80.65L832.59 100.65L832.59 140.65L797.94 160.65L763.3 140.65L763.3 100.65zM832.59 140.65L867.23 160.65L867.23 200.65L832.59 220.65L797.94 200.65L797.94 160.65zM901.87 380.65L936.51 400.65L936.51 440.65L901.87 460.65L867.23 440.65L867.23 400.65zM901.87 500.65L936.51 520.65L936.51 560.65L901.87 580.65L867.23 560.65L867.23 520.65zM971.15 140.65L1005.8 160.65L1005.8 200.65L971.15 220.65L936.51 200.65L936.51 160.65zM971.15 260.65L1005.8 280.65L1005.8 320.65L971.15 340.65L936.51 320.65L936.51 280.65zM1040.44 140.65L1075.08 160.65L1075.08 200.65L1040.44 220.65L1005.8 200.65L1005.8 160.65zM1144.36 200.65L1179.01 220.65L1179.01 260.65L1144.36 280.65L1109.72 260.65L1109.72 220.65zM1179.01 260.65L1213.65 280.65L1213.65 320.65L1179.01 340.65L1144.36 320.65L1144.36 280.65zM1144.36 320.65L1179.01 340.65L1179.01 380.65L1144.36 400.65L1109.72 380.65L1109.72 340.65zM1248.29 260.65L1282.93 280.65L1282.93 320.65L1248.29 340.65L1213.65 320.65L1213.65 280.65zM1456.14 140.65L1490.78 160.65L1490.78 200.65L1456.14 220.65L1421.5 200.65L1421.5 160.65z" stroke="rgba(6, 80, 156, 0.93)" stroke-width="2"></path></g><defs><mask id="SvgjsMask1354"><rect width="1440" height="560" fill="#ffffff"></rect></mask></defs></svg>